PathFileType	4	(X/Y/Z)	C:/Users/opensim2020/Desktop/walking_exp_matlab/subject06_walking11_run_cyclic.trc																																																																																																																																								
DataRate	CameraRate	NumFrames	NumMarkers	Units	OrigDataRate	OrigDataStartFrame	OrigNumFrames																																																																																																																																				
100	100	5	46	mm	100	215	66																																																																																																																																				
Frame#	Time	LKNE			RKNE			RFRM			RWRA			RWRB			RELB			RUPA			RSHO			LWRA			RFIN			RFHD			CLAV			RASI			RTHI			LSHO			LTHI			RBHD			C7			LTIB			LANK			LTOE			LBHD			RTIB			RBAK			LHEE			RANK			STRN			RHEE			RTOE			T10			LUPA			LFHD			LPSI			RPSI			LASI			LFRM			LWRB			LFIN			LELB			*39			*40			*41			*42			*43			*44			*45		
		X1	Y1	Z1	X2	Y2	Z2	X3	Y3	Z3	X4	Y4	Z4	X5	Y5	Z5	X6	Y6	Z6	X7	Y7	Z7	X8	Y8	Z8	X9	Y9	Z9	X10	Y10	Z10	X11	Y11	Z11	X12	Y12	Z12	X13	Y13	Z13	X14	Y14	Z14	X15	Y15	Z15	X16	Y16	Z16	X17	Y17	Z17	X18	Y18	Z18	X19	Y19	Z19	X20	Y20	Z20	X21	Y21	Z21	X22	Y22	Z22	X23	Y23	Z23	X24	Y24	Z24	X25	Y25	Z25	X26	Y26	Z26	X27	Y27	Z27	X28	Y28	Z28	X29	Y29	Z29	X30	Y30	Z30	X31	Y31	Z31	X32	Y32	Z32	X33	Y33	Z33	X34	Y34	Z34	X35	Y35	Z35	X36	Y36	Z36	X37	Y37	Z37	X38	Y38	Z38	X39	Y39	Z39	X40	Y40	Z40	X41	Y41	Z41	X42	Y42	Z42	X43	Y43	Z43	X44	Y44	Z44	X45	Y45	Z45	X46	Y46	Z46
																																																																																																																																											
1	0	-537.51062	558.55151	109.94286	-860.94788	514.16394	354.82367	-593.59424	1127.61023	448.65714	-546.04523	1194.6792	334.44714	-512.2807	1140.18909	348.26971	-659.48157	1144.58069	523.45306	-657.35864	1245.95239	495.19931	-603.87927	1405.63147	370.35992	-701.43579	1148.32104	24.0625	-466.64444	1195.64551	310.52182	-535.8822	1637.96887	288.27859	-590.95923	1360.0752	209.80815	-659.48517	941.48395	333.71713	-817.41656	633.3515	379.23846	-678.84479	1421.57922	73.40881	-617.93536	692.96344	70.15643	-669.07861	1593.20435	296.8497	-687.10223	1453.60095	229.15404	-652.51263	341.69238	119.1943	-736.61609	188.84097	159.18974	-620.12335	106.58599	176.28067	-682.85913	1602.65198	168.42511	-1047.35571	319.543	358.78418	-772.33899	1306.4762	324.56323	-784.50616	192.13849	201.36086	-1173.39038	183.38937	321.01001	-585.93994	1178.04639	204.77263	-1212.18518	205.94328	285.37878	-1131.48938	34.24456	277.20517	-783.07568	1142.45178	241.52699	-812.33917	1320.10974	-17.98652	-548.0979	1653.0155	157.60257	-804.18054	1012.69	142.26306	-797.4563	1007.97235	308.2558	-652.63403	956.17511	120.14398	-812.45166	1156.69739	-42.15663	-729.44379	1086.23462	3.81014	-638.70258	1075.76672	19.68464	-892.73029	1259.50977	-49.89178	NaN	NaN	NaN	-641.15076	1692.71948	227.06711	NaN	NaN	NaN	NaN	NaN	NaN	NaN	NaN	NaN	NaN	NaN	NaN	NaN	NaN	NaN
2	0.01	-497.76114	566.97095	108.72689	-833.36371	524.5564	355.52682	-554.00421	1138.72717	445.38452	-508.78806	1208.61169	332.00333	-474.65961	1153.93689	343.62198	-618.6261	1153.45996	521.76276	-616.8902	1255.47131	492.82794	-566.10931	1414.18701	367.35489	-667.84076	1156.8418	23.4336	-429.94659	1210.49414	306.6398	-499.21948	1644.51379	285.58325	-554.91925	1367.77649	207.83211	-617.75958	949.29547	333.85532	-784.06287	641.78766	379.16794	-642.10217	1429.25378	72.54041	-579.02301	703.04938	70.17792	-632.80658	1600.78821	294.16675	-650.11017	1461.09338	227.78334	-593.4895	337.91788	120.22671	-661.91132	178.1546	163.39497	-540.38641	102.64796	184.81689	-646.26849	1609.99756	165.66589	-1022.28595	332.2298	360.5336	-733.27771	1314.44849	325.50107	-710.31006	179.39149	205.13757	-1147.31726	196.00922	323.64023	-547.39941	1186.19177	202.87379	-1183.79858	222.07298	288.63885	-1121.38586	41.63267	279.30267	-744.12091	1150.00879	243.83597	-777.64368	1329.82666	-16.78509	-511.22095	1659.35815	154.84288	-763.40759	1020.63818	143.8362	-755.54395	1013.91064	308.96777	-612.79846	964.79663	120.26614	-780.16577	1166.19397	-40.70555	-696.75018	1095.05713	4.09589	-606.21106	1083.65662	17.08879	-859.65143	1269.96851	-47.04335	NaN	NaN	NaN	-604.01453	1700.11462	224.08566	NaN	NaN	NaN	NaN	NaN	NaN	NaN	NaN	NaN	NaN	NaN	NaN	NaN	NaN	NaN
3	0.02	-459.48364	572.61353	107.53028	-804.53357	534.28894	356.4433	-514.70709	1148.56458	443.03107	-471.46161	1220.75146	330.20044	-436.77316	1165.88513	340.33313	-578.33527	1161.47473	520.64301	-577.12073	1264.4834	490.73685	-528.87939	1421.91223	364.33841	-633.16461	1164.37183	23.2561	-393.28864	1222.86499	302.84134	-462.64334	1650.00146	282.87714	-518.80042	1374.62146	205.98105	-576.55212	956.1676	333.5976	-750.93402	649.92151	379.68149	-604.91516	1435.901	71.71266	-541.41693	710.08966	70.29679	-596.88361	1607.29761	291.33289	-613.24335	1467.3595	226.41443	-535.27057	333.40359	120.96257	-587.96527	168.44559	167.19681	-462.07611	99.06509	193.09079	-609.63763	1616.2467	162.69156	-994.98096	343.55875	360.83337	-694.56049	1321.19604	325.93805	-636.42926	167.94951	208.56392	-1119.23584	208.82843	325.21002	-508.85327	1193.32874	201.10385	-1153.10974	237.58226	290.60767	-1106.91113	50.20407	281.17926	-705.08368	1156.8905	245.51411	-742.24127	1338.21509	-16.06268	-474.21021	1664.4657	152.08569	-722.96521	1027.53137	145.38795	-713.9906	1019.41455	310.35574	-573.67572	971.79187	120.4438	-746.53857	1174.27844	-39.33606	-663.11981	1103.01831	4.42602	-572.59344	1090.74915	15.30108	-825.63684	1278.68848	-44.82977	NaN	NaN	NaN	-566.68939	1706.25549	220.92572	NaN	NaN	NaN	NaN	NaN	NaN	NaN	NaN	NaN	NaN	NaN	NaN	NaN	NaN	NaN
4	0.03	-422.31183	575.79205	106.16289	-773.02954	542.72198	356.95831	-476.35266	1156.85742	441.15536	-434.12976	1230.87695	329.19797	-399.91989	1175.34424	337.1492	-538.52002	1168.48657	520.255	-538.00891	1272.40759	489.00449	-492.13348	1428.72278	361.65408	-597.61938	1170.82898	23.45066	-356.76346	1232.78772	299.32535	-426.11533	1654.83044	280.16074	-482.40897	1380.41357	204.11143	-535.60663	961.73187	333.26486	-716.91791	657.35284	380.20996	-567.69592	1441.38074	70.60938	-504.77078	714.20599	70.24569	-560.74414	1612.92578	288.33804	-576.87714	1472.24512	224.93556	-478.64594	328.51868	121.78115	-515.15454	159.8064	170.72589	-385.6026	95.91797	200.58087	-572.93933	1621.41321	159.6192	-964.20813	352.98444	360.62091	-656.30939	1326.48975	325.86105	-563.66229	158.013	211.86211	-1091.84229	222.33736	325.0217	-470.19843	1199.34741	199.633	-1124.21057	251.76099	289.58121	-1087.91174	59.24636	283.86121	-665.99109	1162.78796	246.5811	-706.25348	1345.00269	-15.91696	-437.24106	1668.90979	149.18878	-683.02539	1032.86633	146.9359	-672.64807	1024.44348	312.11401	-535.21204	976.8183	120.60888	-711.78125	1180.81335	-38.08273	-627.96313	1109.60852	4.9895	-537.8465	1097.00439	14.07796	-790.76007	1285.38074	-43.37605	NaN	NaN	NaN	-529.70129	1711.33643	217.6483	NaN	NaN	NaN	NaN	NaN	NaN	NaN	NaN	NaN	NaN	NaN	NaN	NaN	NaN	NaN
5	0.04	-386.57413	576.40436	104.74816	-738.43976	548.95654	357.43774	-438.16779	1163.58936	440.32993	-396.51181	1238.83691	328.85861	-363.05746	1182.78601	335.11377	-499.34933	1174.33948	520.50421	-499.4697	1278.96765	487.84354	-455.49139	1434.50684	359.36771	-561.32257	1176.09277	23.66221	-320.23041	1240.17944	296.4574	-389.84592	1659.13928	277.43152	-445.61481	1385.16479	202.28302	-495.31683	965.91663	333.37689	-681.16632	663.29053	380.59479	-530.41296	1445.52905	69.33739	-468.85129	715.61292	69.56271	-524.27515	1617.63916	285.20953	-540.65137	1475.82776	223.14706	-424.12241	323.26584	122.44106	-444.35748	152.58144	173.91939	-311.56213	94.02575	207.42256	-536.1994	1625.59827	156.49162	-931.47986	361.22211	360.10257	-618.3537	1330.37024	325.12585	-492.47406	149.61565	214.59007	-1065.55505	236.09421	323.58484	-431.69775	1204.104	198.48155	-1098.1543	264.6001	287.38757	-1058.87891	73.16473	287.91544	-626.9873	1167.72449	246.92241	-669.88507	1349.90991	-16.2826	-400.40997	1672.80151	146.39232	-643.65564	1036.6106	148.81438	-631.67981	1028.60413	313.73642	-496.85062	980.03363	120.85562	-675.97198	1185.81763	-37.41192	-591.89117	1115.0625	5.15742	-501.6059	1102.35645	13.51185	-755.18677	1290.01611	-42.71657	NaN	NaN	NaN	-492.98138	1715.63879	214.34836	NaN	NaN	NaN	NaN	NaN	NaN	NaN	NaN	NaN	NaN	NaN	NaN	NaN	NaN	NaN
